<svg xmlns="http://www.w3.org/2000/svg" width="600" height="400" viewBox="0 0 600 400" fill="none">
  <!-- Sky background -->
  <rect width="600" height="400" fill="oklch(0.95 0.02 200)"/>
  
  <!-- Sun -->
  <circle cx="500" cy="80" r="40" fill="oklch(0.85 0.15 85)" opacity="0.8"/>
  
  <!-- Hills -->
  <ellipse cx="150" cy="350" rx="200" ry="80" fill="oklch(0.65 0.15 145)"/>
  <ellipse cx="450" cy="360" rx="180" ry="70" fill="oklch(0.60 0.15 145)"/>
  
  <!-- Field rows -->
  <path d="M50 280 Q150 270 250 280 T450 280 T600 280" stroke="oklch(0.55 0.18 145)" stroke-width="3" fill="none" opacity="0.6"/>
  <path d="M50 300 Q150 290 250 300 T450 300 T600 300" stroke="oklch(0.55 0.18 145)" stroke-width="3" fill="none" opacity="0.6"/>
  <path d="M50 320 Q150 310 250 320 T450 320 T600 320" stroke="oklch(0.55 0.18 145)" stroke-width="3" fill="none" opacity="0.6"/>
  
  <!-- Plants -->
  <g transform="translate(100, 250)">
    <path d="M0 0 Q-10 -20 -5 -40" stroke="oklch(0.55 0.18 145)" stroke-width="2" fill="none"/>
    <path d="M0 0 Q10 -20 5 -40" stroke="oklch(0.55 0.18 145)" stroke-width="2" fill="none"/>
    <circle cx="-5" cy="-40" r="8" fill="oklch(0.70 0.20 45)"/>
    <circle cx="5" cy="-40" r="8" fill="oklch(0.70 0.20 45)"/>
  </g>
  
  <g transform="translate(200, 260)">
    <path d="M0 0 Q-10 -25 -5 -50" stroke="oklch(0.55 0.18 145)" stroke-width="2" fill="none"/>
    <path d="M0 0 Q10 -25 5 -50" stroke="oklch(0.55 0.18 145)" stroke-width="2" fill="none"/>
    <circle cx="-5" cy="-50" r="10" fill="oklch(0.70 0.20 45)"/>
    <circle cx="5" cy="-50" r="10" fill="oklch(0.70 0.20 45)"/>
  </g>
  
  <g transform="translate(300, 255)">
    <path d="M0 0 Q-8 -18 -4 -35" stroke="oklch(0.55 0.18 145)" stroke-width="2" fill="none"/>
    <path d="M0 0 Q8 -18 4 -35" stroke="oklch(0.55 0.18 145)" stroke-width="2" fill="none"/>
    <circle cx="-4" cy="-35" r="7" fill="oklch(0.70 0.20 45)"/>
    <circle cx="4" cy="-35" r="7" fill="oklch(0.70 0.20 45)"/>
  </g>
  
  <g transform="translate(400, 265)">
    <path d="M0 0 Q-12 -22 -6 -45" stroke="oklch(0.55 0.18 145)" stroke-width="2" fill="none"/>
    <path d="M0 0 Q12 -22 6 -45" stroke="oklch(0.55 0.18 145)" stroke-width="2" fill="none"/>
    <circle cx="-6" cy="-45" r="9" fill="oklch(0.70 0.20 45)"/>
    <circle cx="6" cy="-45" r="9" fill="oklch(0.70 0.20 45)"/>
  </g>
  
  <!-- Tractor silhouette -->
  <g transform="translate(480, 300)">
    <rect x="0" y="-20" width="40" height="20" fill="oklch(0.40 0.05 145)" rx="2"/>
    <rect x="10" y="-35" width="20" height="15" fill="oklch(0.40 0.05 145)" rx="2"/>
    <circle cx="10" cy="0" r="12" fill="oklch(0.30 0.02 145)"/>
    <circle cx="10" cy="0" r="6" fill="oklch(0.50 0.02 145)"/>
    <circle cx="35" cy="0" r="8" fill="oklch(0.30 0.02 145)"/>
    <circle cx="35" cy="0" r="4" fill="oklch(0.50 0.02 145)"/>
  </g>
</svg>
