<svg xmlns="http://www.w3.org/2000/svg" width="40" height="40" viewBox="0 0 40 40" fill="none">
  <circle cx="20" cy="20" r="18" fill="oklch(0.55 0.18 145)" opacity="0.1"/>
  <path d="M20 8C20 8 16 12 16 16C16 18.2091 17.7909 20 20 20C22.2091 20 24 18.2091 24 16C24 12 20 8 20 8Z" fill="oklch(0.55 0.18 145)"/>
  <path d="M20 20V32M20 32L16 28M20 32L24 28" stroke="oklch(0.55 0.18 145)" stroke-width="2" stroke-linecap="round" stroke-linejoin="round"/>
  <path d="M14 24C14 24 12 26 12 28C12 29.1046 12.8954 30 14 30C15.1046 30 16 29.1046 16 28C16 26 14 24 14 24Z" fill="oklch(0.65 0.15 85)"/>
  <path d="M26 24C26 24 24 26 24 28C24 29.1046 24.8954 30 26 30C27.1046 30 28 29.1046 28 28C28 26 26 24 26 24Z" fill="oklch(0.65 0.15 85)"/>
</svg>
